<?xml version="1.0" encoding="UTF-8"?>
<!DOCTYPE svg PUBLIC "-//W3C//DTD SVG 1.1//EN" "http://www.w3.org/Graphics/SVG/1.1/DTD/svg11.dtd">
<svg xmlns="http://www.w3.org/2000/svg" version="1.1" width="65px" height="65px" style="shape-rendering:geometricPrecision; text-rendering:geometricPrecision; image-rendering:optimizeQuality; fill-rule:evenodd; clip-rule:evenodd" xmlns:xlink="http://www.w3.org/1999/xlink">
<g><path style="opacity:0.95" fill="#b731aa" d="M 64.5,31.5 C 64.5,31.8333 64.5,32.1667 64.5,32.5C 60.7983,55.7124 47.1317,65.8791 23.5,63C 8.89176,57.9159 0.89176,47.7492 -0.5,32.5C -0.5,32.1667 -0.5,31.8333 -0.5,31.5C 3.20166,8.28761 16.8683,-1.87905 40.5,1C 55.1082,6.08409 63.1082,16.2508 64.5,31.5 Z"/></g>
<g><path style="opacity:1" fill="#f3f2f2" d="M 33.5,8.5 C 34.5466,14.5409 38.2132,17.8742 44.5,18.5C 44.5245,22.4362 43.1912,25.7695 40.5,28.5C 33.8069,31.1193 27.1402,31.1193 20.5,28.5C 19.0937,28.0269 18.427,27.0269 18.5,25.5C 20.2348,22.1611 19.5682,19.4944 16.5,17.5C 16.5,16.1667 16.5,14.8333 16.5,13.5C 16.3379,11.4727 16.5045,9.4727 17,7.5C 17.414,7.04265 17.914,6.70931 18.5,6.5C 23.3726,8.04164 28.3726,8.7083 33.5,8.5 Z"/></g>
<g><path style="opacity:1" fill="#fdbb5b" d="M 44.5,11.5 C 44.5,13.8333 44.5,16.1667 44.5,18.5C 38.2132,17.8742 34.5466,14.5409 33.5,8.5C 36.7045,7.04034 40.0378,6.54034 43.5,7C 44.3802,8.35613 44.7135,9.85613 44.5,11.5 Z"/></g>
<g><path style="opacity:1" fill="#fb7476" d="M 18.5,9.5 C 23.1878,9.23687 23.5212,10.5702 19.5,13.5C 18.5713,12.3112 18.238,10.9778 18.5,9.5 Z"/></g>
<g><path style="opacity:1" fill="#fa6556" d="M 38.5,10.5 C 39.5676,9.56552 40.901,9.23219 42.5,9.5C 42.3065,14.403 40.9731,14.7363 38.5,10.5 Z"/></g>
<g><path style="opacity:1" fill="#a62a94" d="M 44.5,11.5 C 52.3378,16.1615 56.3378,23.1615 56.5,32.5C 55.5497,41.0782 51.5497,47.7448 44.5,52.5C 44.702,50.0504 44.3686,47.717 43.5,45.5C 50.96,44.0666 53.96,39.7332 52.5,32.5C 50.9923,27.7212 48.9923,27.3879 46.5,31.5C 45.8365,33.0419 45.1698,34.7086 44.5,36.5C 43.3875,34.5808 42.0542,32.9142 40.5,31.5C 40.5,30.5 40.5,29.5 40.5,28.5C 43.1912,25.7695 44.5245,22.4362 44.5,18.5C 44.5,16.1667 44.5,13.8333 44.5,11.5 Z"/></g>
<g><path style="opacity:1" fill="#a42592" d="M 16.5,13.5 C 16.5,14.8333 16.5,16.1667 16.5,17.5C 16.3367,19.8568 16.5034,22.1902 17,24.5C 17.3826,25.056 17.8826,25.3893 18.5,25.5C 18.427,27.0269 19.0937,28.0269 20.5,28.5C 20.5,29.1667 20.5,29.8333 20.5,30.5C 18.7745,32.2279 17.4411,34.2279 16.5,36.5C 16.4013,39.2372 16.7347,41.9039 17.5,44.5C 16.8505,46.4352 16.5172,48.4352 16.5,50.5C 8.57006,43.1243 6.07006,34.1243 9,23.5C 10.7911,19.5613 13.2911,16.228 16.5,13.5 Z"/></g>
<g><path style="opacity:1" fill="#fbb84f" d="M 16.5,17.5 C 19.5682,19.4944 20.2348,22.1611 18.5,25.5C 17.8826,25.3893 17.3826,25.056 17,24.5C 16.5034,22.1902 16.3367,19.8568 16.5,17.5 Z"/></g>
<g><path style="opacity:1" fill="#fa7169" d="M 31.5,23.5 C 31.1667,23.5 30.8333,23.5 30.5,23.5C 27.7684,22.0329 27.9351,21.0329 31,20.5C 34.0649,21.0329 34.2316,22.0329 31.5,23.5 Z"/></g>
<g><path style="opacity:1" fill="#6d6e71" d="M 30.5,23.5 C 30.8333,23.5 31.1667,23.5 31.5,23.5C 32.8845,24.8009 34.3845,24.8009 36,23.5C 36.6123,25.2373 35.9457,26.2373 34,26.5C 31.5217,25.6681 29.0217,25.5014 26.5,26C 25.5494,25.2825 25.3828,24.4491 26,23.5C 27.6155,24.8009 29.1155,24.8009 30.5,23.5 Z"/></g>
<g><path style="opacity:1" fill="#f95e64" d="M 20.5,28.5 C 27.1402,31.1193 33.8069,31.1193 40.5,28.5C 40.5,29.5 40.5,30.5 40.5,31.5C 33.5131,35.7881 26.8465,35.4547 20.5,30.5C 20.5,29.8333 20.5,29.1667 20.5,28.5 Z"/></g>
<g><path style="opacity:1" fill="#fcbd5f" d="M 52.5,32.5 C 51.1825,32.821 49.8492,33.1543 48.5,33.5C 47.2867,33.2528 46.62,32.5862 46.5,31.5C 48.9923,27.3879 50.9923,27.7212 52.5,32.5 Z"/></g>
<g><path style="opacity:1" fill="#f6f5f5" d="M 20.5,30.5 C 26.8465,35.4547 33.5131,35.7881 40.5,31.5C 42.0542,32.9142 43.3875,34.5808 44.5,36.5C 45.1698,34.7086 45.8365,33.0419 46.5,31.5C 46.62,32.5862 47.2867,33.2528 48.5,33.5C 49.8492,33.1543 51.1825,32.821 52.5,32.5C 53.96,39.7332 50.96,44.0666 43.5,45.5C 42.8826,45.6107 42.3826,45.944 42,46.5C 41.5026,49.146 41.3359,51.8127 41.5,54.5C 43.1751,56.456 42.8418,57.7893 40.5,58.5C 40.6663,51.825 40.4996,45.1583 40,38.5C 34.8861,37.1958 29.7195,37.1958 24.5,38.5C 26.6891,40.2622 28.3557,42.4289 29.5,45C 27.2004,49.0249 24.2004,49.5249 20.5,46.5C 19.5091,50.4454 19.1758,54.4454 19.5,58.5C 18.7507,55.799 17.7507,53.1323 16.5,50.5C 16.5172,48.4352 16.8505,46.4352 17.5,44.5C 18.9931,43.6879 19.6598,42.3545 19.5,40.5C 19.8896,38.0182 18.8896,36.6848 16.5,36.5C 17.4411,34.2279 18.7745,32.2279 20.5,30.5 Z"/></g>
<g><path style="opacity:1" fill="#febf5b" d="M 16.5,36.5 C 18.8896,36.6848 19.8896,38.0182 19.5,40.5C 19.6598,42.3545 18.9931,43.6879 17.5,44.5C 16.7347,41.9039 16.4013,39.2372 16.5,36.5 Z"/></g>
<g><path style="opacity:1" fill="#449cf9" d="M 40.5,58.5 C 33.5988,59.8099 26.5988,59.8099 19.5,58.5C 19.1758,54.4454 19.5091,50.4454 20.5,46.5C 24.2004,49.5249 27.2004,49.0249 29.5,45C 28.3557,42.4289 26.6891,40.2622 24.5,38.5C 29.7195,37.1958 34.8861,37.1958 40,38.5C 40.4996,45.1583 40.6663,51.825 40.5,58.5 Z"/></g>
<g><path style="opacity:1" fill="#fcbb5c" d="M 43.5,45.5 C 44.3686,47.717 44.702,50.0504 44.5,52.5C 43.5,53.1667 42.5,53.8333 41.5,54.5C 41.3359,51.8127 41.5026,49.146 42,46.5C 42.3826,45.944 42.8826,45.6107 43.5,45.5 Z"/></g>
</svg>
