<?xml version="1.0" encoding="UTF-8"?>
<!DOCTYPE svg PUBLIC "-//W3C//DTD SVG 1.1//EN" "http://www.w3.org/Graphics/SVG/1.1/DTD/svg11.dtd">
<svg xmlns="http://www.w3.org/2000/svg" version="1.1" width="64px" height="64px" style="shape-rendering:geometricPrecision; text-rendering:geometricPrecision; image-rendering:optimizeQuality; fill-rule:evenodd; clip-rule:evenodd" xmlns:xlink="http://www.w3.org/1999/xlink">
<g><path style="opacity:0.979" fill="#a1d3dd" d="M 23.5,0.5 C 42.7909,-2.33544 55.6242,5.33122 62,23.5C 65.3285,42.8055 57.8285,55.6389 39.5,62C 20.1945,65.3285 7.36112,57.8285 1,39.5C -2.1151,20.1648 5.3849,7.16479 23.5,0.5 Z"/></g>
<g><path style="opacity:1" fill="#764734" d="M 26.5,18.5 C 24.7129,21.9687 23.3795,25.6353 22.5,29.5C 21.9976,31.0847 20.9976,31.5847 19.5,31C 17.7888,29.8668 17.2888,28.3668 18,26.5C 19.6876,23.7742 21.1876,20.9408 22.5,18C 24.0657,17.235 25.3991,17.4017 26.5,18.5 Z"/></g>
<g><path style="opacity:1" fill="#764734" d="M 40.5,29.5 C 39.6205,25.6353 38.2871,21.9687 36.5,18.5C 37.6009,17.4017 38.9343,17.235 40.5,18C 41.8124,20.9408 43.3124,23.7742 45,26.5C 45.7112,28.3668 45.2112,29.8668 43.5,31C 42.0024,31.5847 41.0024,31.0847 40.5,29.5 Z"/></g>
<g><path style="opacity:1" fill="#8d6653" d="M 26.5,18.5 C 29.8333,18.5 33.1667,18.5 36.5,18.5C 38.2871,21.9687 39.6205,25.6353 40.5,29.5C 39.3681,32.6284 38.5348,35.9618 38,39.5C 35.7624,41.2093 35.2624,43.2093 36.5,45.5C 34.5082,45.6715 32.8415,45.0049 31.5,43.5C 30.1585,45.0049 28.4918,45.6715 26.5,45.5C 27.7376,43.2093 27.2376,41.2093 25,39.5C 24.4652,35.9618 23.6319,32.6284 22.5,29.5C 23.3795,25.6353 24.7129,21.9687 26.5,18.5 Z"/></g>
<g><path style="opacity:1" fill="#74412d" d="M 29.5,29.5 C 33.509,29.0136 35.3423,30.6803 35,34.5C 28.4786,36.9799 26.6453,35.3133 29.5,29.5 Z"/></g>
<g><path style="opacity:1" fill="#97938b" d="M 36.5,45.5 C 33.1667,46.8333 29.8333,46.8333 26.5,45.5C 28.4918,45.6715 30.1585,45.0049 31.5,43.5C 32.8415,45.0049 34.5082,45.6715 36.5,45.5 Z"/></g>
</svg>
