<?xml version="1.0" encoding="UTF-8"?>
<!DOCTYPE svg PUBLIC "-//W3C//DTD SVG 1.1//EN" "http://www.w3.org/Graphics/SVG/1.1/DTD/svg11.dtd">
<svg xmlns="http://www.w3.org/2000/svg" version="1.1" width="64px" height="64px" style="shape-rendering:geometricPrecision; text-rendering:geometricPrecision; image-rendering:optimizeQuality; fill-rule:evenodd; clip-rule:evenodd" xmlns:xlink="http://www.w3.org/1999/xlink">
<g><path style="opacity:0.981" fill="#65a744" d="M 23.5,0.5 C 42.7909,-2.33544 55.6242,5.33122 62,23.5C 65.3285,42.8055 57.8285,55.6389 39.5,62C 20.1945,65.3285 7.36112,57.8285 1,39.5C -2.1151,20.1648 5.3849,7.16479 23.5,0.5 Z"/></g>
<g><path style="opacity:1" fill="#44473c" d="M 33.5,17.5 C 32.7784,17.9175 32.2784,18.5842 32,19.5C 31.2917,18.6195 30.4584,17.9528 29.5,17.5C 29.5,16.5 29.5,15.5 29.5,14.5C 31.9726,14.0882 33.3059,15.0882 33.5,17.5 Z"/></g>
<g><path style="opacity:1" fill="#d98038" d="M 29.5,17.5 C 30.4584,17.9528 31.2917,18.6195 32,19.5C 32.2784,18.5842 32.7784,17.9175 33.5,17.5C 34.7079,16.7659 36.0413,16.4326 37.5,16.5C 37.7035,18.3904 37.0368,19.8904 35.5,21C 37.2268,23.9036 37.8935,27.0703 37.5,30.5C 34.062,28.9752 32.062,26.3085 31.5,22.5C 30.938,26.3085 28.938,28.9752 25.5,30.5C 25.1065,27.0703 25.7732,23.9036 27.5,21C 25.9632,19.8904 25.2965,18.3904 25.5,16.5C 26.9587,16.4326 28.2921,16.7659 29.5,17.5 Z"/></g>
<g><path style="opacity:1" fill="#f8f1e8" d="M 37.5,30.5 C 37.5,30.8333 37.5,31.1667 37.5,31.5C 36.4138,31.62 35.7472,32.2867 35.5,33.5C 35.5427,34.4164 35.8761,35.0831 36.5,35.5C 33.1667,38.1667 29.8333,38.1667 26.5,35.5C 27.1239,35.0831 27.4573,34.4164 27.5,33.5C 27.2528,32.2867 26.5862,31.62 25.5,31.5C 25.5,31.1667 25.5,30.8333 25.5,30.5C 28.938,28.9752 30.938,26.3085 31.5,22.5C 32.062,26.3085 34.062,28.9752 37.5,30.5 Z"/></g>
<g><path style="opacity:1" fill="#4c4542" d="M 25.5,31.5 C 26.5862,31.62 27.2528,32.2867 27.5,33.5C 27.4573,34.4164 27.1239,35.0831 26.5,35.5C 25.8333,35.5 25.5,35.1667 25.5,34.5C 25.5,33.5 25.5,32.5 25.5,31.5 Z"/></g>
<g><path style="opacity:1" fill="#3d3632" d="M 37.5,31.5 C 37.5,32.5 37.5,33.5 37.5,34.5C 36.8333,34.5 36.5,34.8333 36.5,35.5C 35.8761,35.0831 35.5427,34.4164 35.5,33.5C 35.7472,32.2867 36.4138,31.62 37.5,31.5 Z"/></g>
<g><path style="opacity:1" fill="#dd7c2b" d="M 25.5,34.5 C 25.5,35.1667 25.8333,35.5 26.5,35.5C 29.8333,38.1667 33.1667,38.1667 36.5,35.5C 36.5,34.8333 36.8333,34.5 37.5,34.5C 38.9931,35.3121 39.6598,36.6455 39.5,38.5C 38.9433,41.046 37.9433,43.3793 36.5,45.5C 35.5,45.5 34.5,45.5 33.5,45.5C 32.5,44.1667 31.5,44.1667 30.5,45.5C 29.1667,45.5 27.8333,45.5 26.5,45.5C 26.6309,44.6236 26.2975,43.9569 25.5,43.5C 23.9291,44.3094 22.2624,44.6427 20.5,44.5C 20.8333,43.8333 21.1667,43.1667 21.5,42.5C 23.0469,40.0316 24.3802,37.365 25.5,34.5 Z"/></g>
<g><path style="opacity:1" fill="#464f3d" d="M 21.5,42.5 C 21.1667,43.1667 20.8333,43.8333 20.5,44.5C 15.0525,41.7442 15.3859,41.0776 21.5,42.5 Z"/></g>
<g><path style="opacity:1" fill="#77933e" d="M 33.5,45.5 C 32.2601,47.9845 31.2601,47.9845 30.5,45.5C 31.5,44.1667 32.5,44.1667 33.5,45.5 Z"/></g>
<g><path style="opacity:1" fill="#4a4a3b" d="M 26.5,45.5 C 27.8333,45.5 29.1667,45.5 30.5,45.5C 31.2601,47.9845 32.2601,47.9845 33.5,45.5C 34.5,45.5 35.5,45.5 36.5,45.5C 36.8039,46.1499 37.1373,46.8165 37.5,47.5C 33.5411,48.6599 29.5411,48.8265 25.5,48C 26.2524,47.3292 26.5858,46.4959 26.5,45.5 Z"/></g>
</svg>
