<?xml version="1.0" encoding="UTF-8"?>
<!DOCTYPE svg PUBLIC "-//W3C//DTD SVG 1.1//EN" "http://www.w3.org/Graphics/SVG/1.1/DTD/svg11.dtd">
<svg xmlns="http://www.w3.org/2000/svg" version="1.1" width="64px" height="64px" style="shape-rendering:geometricPrecision; text-rendering:geometricPrecision; image-rendering:optimizeQuality; fill-rule:evenodd; clip-rule:evenodd" xmlns:xlink="http://www.w3.org/1999/xlink">
<g><path style="opacity:0.986" fill="#e74849" d="M 23.5,0.5 C 42.7909,-2.33544 55.6242,5.33122 62,23.5C 65.3285,42.8055 57.8285,55.6389 39.5,62C 20.1945,65.3285 7.36112,57.8285 1,39.5C -2.1151,20.1648 5.3849,7.16479 23.5,0.5 Z"/></g>
<g><path style="opacity:1" fill="#c4bcaf" d="M 35.5,48.5 C 32.8333,48.5 30.1667,48.5 27.5,48.5C 22.7803,41.6834 21.1137,34.1834 22.5,26C 18.1324,21.852 18.6324,18.6854 24,16.5C 26.1773,18.0511 28.6773,19.0511 31.5,19.5C 34.3227,19.0511 36.8227,18.0511 39,16.5C 44.3676,18.6854 44.8676,21.852 40.5,26C 41.8863,34.1834 40.2197,41.6834 35.5,48.5 Z"/></g>
<g><path style="opacity:1" fill="#eebc99" d="M 21.5,18.5 C 26.2442,18.0384 27.2442,19.5384 24.5,23C 23.552,23.4828 22.552,23.6495 21.5,23.5C 21.5,21.8333 21.5,20.1667 21.5,18.5 Z"/></g>
<g><path style="opacity:1" fill="#eebc99" d="M 37.5,18.5 C 38.8333,18.5 40.1667,18.5 41.5,18.5C 41.5,20.1667 41.5,21.8333 41.5,23.5C 37.745,23.4369 36.4116,21.7702 37.5,18.5 Z"/></g>
<g><path style="opacity:1" fill="#474747" d="M 34.5,30.5 C 36.337,30.6395 36.6704,31.3061 35.5,32.5C 34.7025,32.0431 34.3691,31.3764 34.5,30.5 Z"/></g>
<g><path style="opacity:1" fill="#494948" d="M 26.5,30.5 C 28.337,30.6395 28.6704,31.3061 27.5,32.5C 26.7025,32.0431 26.3691,31.3764 26.5,30.5 Z"/></g>
<g><path style="opacity:1" fill="#474646" d="M 28.5,39.5 C 31.0728,39.1485 33.4062,39.6485 35.5,41C 33.3863,42.518 31.053,42.8513 28.5,42C 27.4019,41.2303 27.4019,40.397 28.5,39.5 Z"/></g>
<g><path style="opacity:1" fill="#d58c84" d="M 27.5,48.5 C 30.1667,48.5 32.8333,48.5 35.5,48.5C 36.0431,48.56 36.3764,48.8933 36.5,49.5C 33.1667,50.8333 29.8333,50.8333 26.5,49.5C 26.6236,48.8933 26.9569,48.56 27.5,48.5 Z"/></g>
</svg>
